<?xml version="1.0" encoding="UTF-8"?>
<svg xmlns="http://www.w3.org/2000/svg" viewBox="0 0 600 600" width="600" height="600">
  <title>St. Louis Cathedral · Streetcar</title>
  <defs>
    <pattern id="hatch-cath" patternUnits="userSpaceOnUse" width="5" height="5" patternTransform="rotate(45)">
      <line x1="0" y1="0" x2="0" y2="5" stroke="#2A1A12" stroke-width="0.5" opacity="0.22"></line>
    </pattern>
  </defs>

  <circle cx="300" cy="300" r="268" fill="none" stroke="#B8935A" stroke-width="1" opacity="0.55"></circle>
  <circle cx="300" cy="300" r="254" fill="none" stroke="#B8935A" stroke-width="0.6" opacity="0.3"></circle>

  <g stroke="#2A1A12" stroke-linecap="round" stroke-linejoin="round">

    
    
    <line x1="300" y1="110" x2="300" y2="135" stroke-width="1.4"></line>
    <path d="M 297 110 L 300 104 L 303 110 Z" fill="#2A1A12"></path>
    
    <g stroke-width="1">
      <line x1="300" y1="104" x2="300" y2="96"></line>
      <line x1="296" y1="99" x2="304" y2="99"></line>
    </g>

    
    <path d="M 280 220 L 300 135 L 320 220 Z" fill="#F5EDE0" stroke-width="2.2"></path>
    
    <path d="M 280 220 L 300 135 L 320 220 Z" fill="url(#hatch-cath)" stroke="none"></path>
    
    <g stroke-width="0.8" fill="none" opacity="0.6">
      <line x1="289" y1="175" x2="311" y2="175"></line>
      <line x1="286" y1="195" x2="314" y2="195"></line>
      <line x1="283" y1="210" x2="317" y2="210"></line>
    </g>

    
    <rect x="272" y="220" width="56" height="70" fill="#F5EDE0" stroke-width="2.2"></rect>
    
    <circle cx="300" cy="255" r="16" fill="#C29A3E" fill-opacity="0.25" stroke="#2A1A12" stroke-width="1.6"></circle>
    
    <g stroke="#2A1A12" stroke-width="0.8" opacity="0.75">
      <line x1="300" y1="240" x2="300" y2="270"></line>
      <line x1="285" y1="255" x2="315" y2="255"></line>
      <line x1="289" y1="244" x2="311" y2="266"></line>
      <line x1="311" y1="244" x2="289" y2="266"></line>
    </g>
    <circle cx="300" cy="255" r="5" fill="none" stroke-width="0.9"></circle>

    
    <g fill="#2A1A12" stroke-width="1.2" opacity="0.85">
      <path d="M 282 285&#xA;               L 282 277&#xA;               Q 287 272 292 277&#xA;               L 292 285 Z"></path>
      <path d="M 296 285&#xA;               L 296 277&#xA;               Q 300 272 304 277&#xA;               L 304 285 Z"></path>
      <path d="M 308 285&#xA;               L 308 277&#xA;               Q 313 272 318 277&#xA;               L 318 285 Z"></path>
    </g>

    
    <line x1="210" y1="150" x2="210" y2="170" stroke-width="1"></line>
    <path d="M 207 150 L 210 144 L 213 150 Z" fill="#2A1A12"></path>
    <g stroke-width="0.8">
      <line x1="210" y1="144" x2="210" y2="138"></line>
      <line x1="207" y1="140" x2="213" y2="140"></line>
    </g>
    <path d="M 195 240 L 210 170 L 225 240 Z" fill="#F5EDE0" stroke-width="2"></path>
    <path d="M 195 240 L 210 170 L 225 240 Z" fill="url(#hatch-cath)" stroke="none"></path>
    <g stroke-width="0.7" opacity="0.6">
      <line x1="202" y1="205" x2="218" y2="205"></line>
      <line x1="199" y1="220" x2="221" y2="220"></line>
    </g>

    
    <rect x="188" y="240" width="44" height="110" fill="#F5EDE0" stroke-width="2.2"></rect>
    
    <g fill="#2A1A12" opacity="0.85">
      <path d="M 195 295 L 195 275 Q 203 268 211 275 L 211 295 Z"></path>
      <path d="M 215 295 L 215 275 Q 223 268 231 275 L 231 295 Z"></path>
    </g>
    
    <circle cx="210" cy="322" r="14" fill="#F5EDE0" stroke-width="1.6"></circle>
    <g stroke-width="0.8" fill="none">
      <line x1="210" y1="310" x2="210" y2="314"></line>
      <line x1="210" y1="330" x2="210" y2="334"></line>
      <line x1="198" y1="322" x2="202" y2="322"></line>
      <line x1="218" y1="322" x2="222" y2="322"></line>
      
      <line x1="210" y1="322" x2="205" y2="315" stroke-width="1.4"></line>
      <line x1="210" y1="322" x2="216" y2="318" stroke-width="1"></line>
    </g>

    
    <line x1="390" y1="150" x2="390" y2="170" stroke-width="1"></line>
    <path d="M 387 150 L 390 144 L 393 150 Z" fill="#2A1A12"></path>
    <g stroke-width="0.8">
      <line x1="390" y1="144" x2="390" y2="138"></line>
      <line x1="387" y1="140" x2="393" y2="140"></line>
    </g>
    <path d="M 375 240 L 390 170 L 405 240 Z" fill="#F5EDE0" stroke-width="2"></path>
    <path d="M 375 240 L 390 170 L 405 240 Z" fill="url(#hatch-cath)" stroke="none"></path>
    <g stroke-width="0.7" opacity="0.6">
      <line x1="382" y1="205" x2="398" y2="205"></line>
      <line x1="379" y1="220" x2="401" y2="220"></line>
    </g>
    <rect x="368" y="240" width="44" height="110" fill="#F5EDE0" stroke-width="2.2"></rect>
    <g fill="#2A1A12" opacity="0.85">
      <path d="M 375 295 L 375 275 Q 383 268 391 275 L 391 295 Z"></path>
      <path d="M 395 295 L 395 275 Q 403 268 411 275 L 411 295 Z"></path>
    </g>
    <circle cx="390" cy="322" r="14" fill="#F5EDE0" stroke-width="1.6"></circle>
    <g stroke-width="0.8" fill="none">
      <line x1="390" y1="310" x2="390" y2="314"></line>
      <line x1="390" y1="330" x2="390" y2="334"></line>
      <line x1="378" y1="322" x2="382" y2="322"></line>
      <line x1="398" y1="322" x2="402" y2="322"></line>
      <line x1="390" y1="322" x2="385" y2="315" stroke-width="1.4"></line>
      <line x1="390" y1="322" x2="396" y2="318" stroke-width="1"></line>
    </g>

    
    <path d="M 232 290&#xA;             L 232 350&#xA;             L 272 350&#xA;             L 272 290 Z" fill="#F5EDE0" stroke-width="2"></path>
    <path d="M 328 290&#xA;             L 328 350&#xA;             L 368 350&#xA;             L 368 290 Z" fill="#F5EDE0" stroke-width="2"></path>

    
    <path d="M 270 330 L 300 295 L 330 330 Z" fill="#F5EDE0" stroke-width="2.2"></path>
    <path d="M 270 330 L 300 295 L 330 330 Z" fill="url(#hatch-cath)" stroke="none"></path>

    
    <path d="M 280 430&#xA;             L 280 350&#xA;             Q 300 335 320 350&#xA;             L 320 430 Z" fill="#2A1A12" stroke-width="2.2"></path>
    
    <line x1="300" y1="340" x2="300" y2="430" stroke="#F5EDE0" stroke-width="1.2" opacity="0.8"></line>
    <g stroke="#F5EDE0" stroke-width="0.8" opacity="0.5">
      <line x1="285" y1="380" x2="315" y2="380"></line>
      <line x1="285" y1="400" x2="315" y2="400"></line>
    </g>
    
    <path d="M 276 355 Q 300 338 324 355" fill="none" stroke-width="1.4"></path>

    
    <g stroke-width="1.8">
      <path d="M 240 420 L 240 360 Q 252 350 264 360 L 264 420 Z" fill="#2A1A12"></path>
      <path d="M 336 420 L 336 360 Q 348 350 360 360 L 360 420 Z" fill="#2A1A12"></path>
    </g>

    
    <g fill="#C29A3E" fill-opacity="0.35" stroke="#2A1A12" stroke-width="1">
      <circle cx="252" cy="315" r="6"></circle>
      <circle cx="348" cy="315" r="6"></circle>
    </g>

    
    <rect x="160" y="350" width="280" height="105" fill="#F5EDE0" stroke-width="2.4"></rect>
    <rect x="160" y="350" width="280" height="105" fill="url(#hatch-cath)" stroke="none"></rect>

    
    <g fill="#2A1A12" stroke-width="1" opacity="0.85">
      <path d="M 175 430 L 175 400 Q 185 390 195 400 L 195 430 Z"></path>
      <path d="M 405 430 L 405 400 Q 415 390 425 400 L 425 430 Z"></path>
    </g>
    
    <g stroke="#2A1A12" stroke-width="1" opacity="0.55" fill="none">
      <rect x="175" y="365" width="20" height="25"></rect>
      <rect x="405" y="365" width="20" height="25"></rect>
    </g>

    
    <line x1="140" y1="455" x2="460" y2="455" stroke-width="2.2"></line>
    <rect x="145" y="455" width="310" height="12" fill="#F5EDE0" stroke-width="1.4"></rect>

    
    <g stroke-width="0.7" opacity="0.5" fill="none">
      <path d="M 95 478 Q 115 474 135 478 Q 155 482 175 478 Q 195 474 215 478"></path>
      <path d="M 235 478 Q 255 474 275 478 Q 295 482 315 478 Q 335 474 355 478"></path>
      <path d="M 375 478 Q 395 474 415 478 Q 435 482 455 478 Q 475 474 495 478"></path>
    </g>

    
    <line x1="300" y1="135" x2="300" y2="155" stroke-width="1"></line>
    <path d="M 300 140 L 320 145 L 300 150 Z" fill="#6B2E82" stroke-width="1"></path>

    
    <line x1="210" y1="170" x2="210" y2="185" stroke-width="0.9"></line>
    <path d="M 210 173 L 222 176 L 210 180 Z" fill="#2F6B3E" stroke-width="0.8"></path>
    
    <line x1="390" y1="170" x2="390" y2="185" stroke-width="0.9"></line>
    <path d="M 390 173 L 402 176 L 390 180 Z" fill="#C29A3E" stroke-width="0.8"></path>

    
    <g stroke-width="0.9" fill="none" opacity="0.75">
      <path d="M 130 180 Q 135 176 140 180 Q 145 176 150 180"></path>
      <path d="M 455 145 Q 460 141 465 145 Q 470 141 475 145"></path>
      <path d="M 95 220 Q 100 216 105 220 Q 110 216 115 220"></path>
    </g>
  </g>
</svg>