<?xml version="1.0" encoding="UTF-8"?>
<svg xmlns="http://www.w3.org/2000/svg" viewBox="0 0 600 600" width="600" height="600">
  <title>Compass Rose · Streetcar (Career GPS motif)</title>
  <defs>
    <pattern id="hatch-c" patternUnits="userSpaceOnUse" width="5" height="5" patternTransform="rotate(45)">
      <line x1="0" y1="0" x2="0" y2="5" stroke="#2A1A12" stroke-width="0.55" opacity="0.3"></line>
    </pattern>
  </defs>

  <circle cx="300" cy="300" r="268" fill="none" stroke="#B8935A" stroke-width="1" opacity="0.55"></circle>
  <circle cx="300" cy="300" r="254" fill="none" stroke="#B8935A" stroke-width="0.6" opacity="0.3"></circle>

  <g stroke="#2A1A12" stroke-linecap="round" stroke-linejoin="round">
    
    <circle cx="300" cy="300" r="220" fill="#F5EDE0" stroke-width="2.4"></circle>
    <circle cx="300" cy="300" r="210" fill="none" stroke-width="1"></circle>
    <circle cx="300" cy="300" r="205" fill="none" stroke-width="0.8" opacity="0.55"></circle>

    
    <g stroke="#2A1A12" stroke-width="1">
      <g id="ticks">
        <line x1="300" y1="80" x2="300" y2="98" stroke-width="1.8"></line>
        <line x1="300" y1="85" x2="300" y2="95" opacity="0.8"></line>
      </g>
      <g transform="rotate(30 300 300)"><line x1="300" y1="80" x2="300" y2="95" opacity="0.6"></line></g>
      <g transform="rotate(60 300 300)"><line x1="300" y1="80" x2="300" y2="95" opacity="0.6"></line></g>
      <g transform="rotate(90 300 300)"><line x1="300" y1="80" x2="300" y2="98" stroke-width="1.8"></line></g>
      <g transform="rotate(120 300 300)"><line x1="300" y1="80" x2="300" y2="95" opacity="0.6"></line></g>
      <g transform="rotate(150 300 300)"><line x1="300" y1="80" x2="300" y2="95" opacity="0.6"></line></g>
      <g transform="rotate(180 300 300)"><line x1="300" y1="80" x2="300" y2="98" stroke-width="1.8"></line></g>
      <g transform="rotate(210 300 300)"><line x1="300" y1="80" x2="300" y2="95" opacity="0.6"></line></g>
      <g transform="rotate(240 300 300)"><line x1="300" y1="80" x2="300" y2="95" opacity="0.6"></line></g>
      <g transform="rotate(270 300 300)"><line x1="300" y1="80" x2="300" y2="98" stroke-width="1.8"></line></g>
      <g transform="rotate(300 300 300)"><line x1="300" y1="80" x2="300" y2="95" opacity="0.6"></line></g>
      <g transform="rotate(330 300 300)"><line x1="300" y1="80" x2="300" y2="95" opacity="0.6"></line></g>
      
      <g transform="rotate(10 300 300)"><line x1="300" y1="85" x2="300" y2="93" opacity="0.4"></line></g>
      <g transform="rotate(20 300 300)"><line x1="300" y1="85" x2="300" y2="93" opacity="0.4"></line></g>
      <g transform="rotate(40 300 300)"><line x1="300" y1="85" x2="300" y2="93" opacity="0.4"></line></g>
      <g transform="rotate(50 300 300)"><line x1="300" y1="85" x2="300" y2="93" opacity="0.4"></line></g>
      <g transform="rotate(70 300 300)"><line x1="300" y1="85" x2="300" y2="93" opacity="0.4"></line></g>
      <g transform="rotate(80 300 300)"><line x1="300" y1="85" x2="300" y2="93" opacity="0.4"></line></g>
      <g transform="rotate(100 300 300)"><line x1="300" y1="85" x2="300" y2="93" opacity="0.4"></line></g>
      <g transform="rotate(110 300 300)"><line x1="300" y1="85" x2="300" y2="93" opacity="0.4"></line></g>
      <g transform="rotate(130 300 300)"><line x1="300" y1="85" x2="300" y2="93" opacity="0.4"></line></g>
      <g transform="rotate(140 300 300)"><line x1="300" y1="85" x2="300" y2="93" opacity="0.4"></line></g>
      <g transform="rotate(160 300 300)"><line x1="300" y1="85" x2="300" y2="93" opacity="0.4"></line></g>
      <g transform="rotate(170 300 300)"><line x1="300" y1="85" x2="300" y2="93" opacity="0.4"></line></g>
      <g transform="rotate(190 300 300)"><line x1="300" y1="85" x2="300" y2="93" opacity="0.4"></line></g>
      <g transform="rotate(200 300 300)"><line x1="300" y1="85" x2="300" y2="93" opacity="0.4"></line></g>
      <g transform="rotate(220 300 300)"><line x1="300" y1="85" x2="300" y2="93" opacity="0.4"></line></g>
      <g transform="rotate(230 300 300)"><line x1="300" y1="85" x2="300" y2="93" opacity="0.4"></line></g>
      <g transform="rotate(250 300 300)"><line x1="300" y1="85" x2="300" y2="93" opacity="0.4"></line></g>
      <g transform="rotate(260 300 300)"><line x1="300" y1="85" x2="300" y2="93" opacity="0.4"></line></g>
      <g transform="rotate(280 300 300)"><line x1="300" y1="85" x2="300" y2="93" opacity="0.4"></line></g>
      <g transform="rotate(290 300 300)"><line x1="300" y1="85" x2="300" y2="93" opacity="0.4"></line></g>
      <g transform="rotate(310 300 300)"><line x1="300" y1="85" x2="300" y2="93" opacity="0.4"></line></g>
      <g transform="rotate(320 300 300)"><line x1="300" y1="85" x2="300" y2="93" opacity="0.4"></line></g>
      <g transform="rotate(340 300 300)"><line x1="300" y1="85" x2="300" y2="93" opacity="0.4"></line></g>
      <g transform="rotate(350 300 300)"><line x1="300" y1="85" x2="300" y2="93" opacity="0.4"></line></g>
    </g>

    
    <g font-family="Cinzel, serif" font-weight="700" font-size="22" fill="#2A1A12" text-anchor="middle">
      <text x="300" y="115">N</text>
      <text x="483" y="308">E</text>
      <text x="300" y="500">S</text>
      <text x="117" y="308">W</text>
    </g>
    
    <g font-family="Cinzel, serif" font-weight="500" font-size="13" fill="#8A6B3C" text-anchor="middle" opacity="0.9">
      <text x="430" y="170">NE</text>
      <text x="430" y="440">SE</text>
      <text x="170" y="440">SW</text>
      <text x="170" y="170">NW</text>
    </g>

    
    <circle cx="300" cy="300" r="175" fill="none" stroke-width="0.9" opacity="0.55"></circle>
    <circle cx="300" cy="300" r="170" fill="none" stroke-width="0.6" opacity="0.4"></circle>

    
    
    <path d="M 300 135 L 310 300 L 300 290 Z" fill="#2A1A12" stroke-width="1.2"></path>
    <path d="M 300 135 L 290 300 L 300 290 Z" fill="#F5EDE0" stroke-width="1.2"></path>

    <path d="M 465 300 L 300 310 L 310 300 Z" fill="#2A1A12" stroke-width="1.2"></path>
    <path d="M 465 300 L 300 290 L 310 300 Z" fill="#F5EDE0" stroke-width="1.2"></path>

    <path d="M 300 465 L 290 300 L 300 310 Z" fill="#2A1A12" stroke-width="1.2"></path>
    <path d="M 300 465 L 310 300 L 300 310 Z" fill="#F5EDE0" stroke-width="1.2"></path>

    <path d="M 135 300 L 300 290 L 290 300 Z" fill="#2A1A12" stroke-width="1.2"></path>
    <path d="M 135 300 L 300 310 L 290 300 Z" fill="#F5EDE0" stroke-width="1.2"></path>

    
    <g fill="#8A6B3C" stroke="#2A1A12" stroke-width="1">
      <path d="M 412 188 L 308 292 L 300 300 Z"></path>
      <path d="M 412 412 L 308 308 L 300 300 Z"></path>
      <path d="M 188 412 L 292 308 L 300 300 Z"></path>
      <path d="M 188 188 L 292 292 L 300 300 Z"></path>
    </g>

    
    <circle cx="300" cy="300" r="38" fill="#F5EDE0" stroke-width="2.2"></circle>
    <circle cx="300" cy="300" r="32" fill="#6B2E82" fill-opacity="0.12" stroke="#8A6B3C" stroke-width="1"></circle>

    
    <g transform="translate(300 300)" stroke-width="1.2">
      <path d="M 0 -20&#xA;               C -4 -14 -8 -4 0 4&#xA;               C 8 -4 4 -14 0 -20 Z" fill="#C29A3E" stroke="#2A1A12"></path>
      <path d="M 0 4&#xA;               C -14 -2 -20 -10 -18 -18&#xA;               C -12 -14 -6 -8 0 -4" fill="none"></path>
      <path d="M 0 4&#xA;               C 14 -2 20 -10 18 -18&#xA;               C 12 -14 6 -8 0 -4" fill="none"></path>
      <rect x="-14" y="4" width="28" height="8" fill="#C29A3E" stroke="#2A1A12" stroke-width="1"></rect>
      <path d="M -6 12&#xA;               C -6 18 -2 22 0 22&#xA;               C 2 22 6 18 6 12" fill="#C29A3E" stroke="#2A1A12"></path>
    </g>

    
    <g stroke="#8A6B3C" stroke-width="0.55" opacity="0.55" fill="none">
      <g transform="rotate(15 300 300)"><line x1="300" y1="130" x2="300" y2="175"></line></g>
      <g transform="rotate(75 300 300)"><line x1="300" y1="130" x2="300" y2="175"></line></g>
      <g transform="rotate(105 300 300)"><line x1="300" y1="130" x2="300" y2="175"></line></g>
      <g transform="rotate(165 300 300)"><line x1="300" y1="130" x2="300" y2="175"></line></g>
      <g transform="rotate(195 300 300)"><line x1="300" y1="130" x2="300" y2="175"></line></g>
      <g transform="rotate(255 300 300)"><line x1="300" y1="130" x2="300" y2="175"></line></g>
      <g transform="rotate(285 300 300)"><line x1="300" y1="130" x2="300" y2="175"></line></g>
      <g transform="rotate(345 300 300)"><line x1="300" y1="130" x2="300" y2="175"></line></g>
    </g>
  </g>
</svg>