<?xml version="1.0" encoding="UTF-8"?>
<svg xmlns="http://www.w3.org/2000/svg" viewBox="0 0 600 600" width="600" height="600">
  <title>Gas Lantern · Streetcar</title>
  <defs>
    <pattern id="hatch-l" patternUnits="userSpaceOnUse" width="5" height="5" patternTransform="rotate(45)">
      <line x1="0" y1="0" x2="0" y2="5" stroke="#2A1A12" stroke-width="0.6" opacity="0.25"></line>
    </pattern>
    <radialGradient id="flame" cx="0.5" cy="0.5" r="0.5">
      <stop offset="0" stop-color="#C29A3E" stop-opacity="0.9"></stop>
      <stop offset="0.55" stop-color="#C29A3E" stop-opacity="0.35"></stop>
      <stop offset="1" stop-color="#C29A3E" stop-opacity="0"></stop>
    </radialGradient>
  </defs>

  <circle cx="300" cy="300" r="268" fill="none" stroke="#B8935A" stroke-width="1" opacity="0.55"></circle>
  <circle cx="300" cy="300" r="254" fill="none" stroke="#B8935A" stroke-width="0.6" opacity="0.3"></circle>

  <g stroke="#2A1A12" stroke-linecap="round" stroke-linejoin="round">
    
    <rect x="270" y="120" width="60" height="22" fill="#F5EDE0" stroke-width="1.8"></rect>
    <g fill="#2A1A12">
      <circle cx="278" cy="125" r="1.8"></circle>
      <circle cx="322" cy="125" r="1.8"></circle>
      <circle cx="278" cy="137" r="1.8"></circle>
      <circle cx="322" cy="137" r="1.8"></circle>
    </g>

    
    <path d="M 300 142&#xA;             C 300 165 295 180 290 195&#xA;             C 286 208 285 220 300 228" fill="none" stroke-width="2.6"></path>
    
    <path d="M 293 175 C 283 173 280 185 290 188 C 298 188 299 178 293 175 Z" fill="#F5EDE0" stroke-width="1.4"></path>
    <path d="M 288 200 C 278 200 277 212 287 213 C 295 213 296 202 288 200 Z" fill="#F5EDE0" stroke-width="1.4"></path>

    
    <line x1="300" y1="228" x2="300" y2="258" stroke-width="2.2"></line>
    
    <circle cx="300" cy="260" r="3.5" fill="#2A1A12"></circle>

    
    <path d="M 260 272&#xA;             L 260 266&#xA;             C 280 256 320 256 340 266&#xA;             L 340 272&#xA;             L 335 272&#xA;             L 330 280&#xA;             L 350 280&#xA;             L 350 292&#xA;             L 250 292&#xA;             L 250 280&#xA;             L 270 280&#xA;             L 265 272 Z" fill="#F5EDE0" stroke-width="2.2"></path>

    
    <path d="M 250 292&#xA;             L 245 376&#xA;             L 355 376&#xA;             L 350 292&#xA;             Z" fill="#F5EDE0" stroke-width="2.4"></path>
    
    <path d="M 260 296&#xA;             L 256 370&#xA;             L 344 370&#xA;             L 340 296 Z" fill="url(#hatch-l)" stroke="none"></path>
    
    <line x1="300" y1="296" x2="300" y2="370" stroke-width="1.6" fill="none"></line>
    <line x1="260" y1="331" x2="340" y2="333" stroke-width="1.6" fill="none"></line>

    
    <circle cx="300" cy="334" r="36" fill="url(#flame)" stroke="none"></circle>

    
    <path d="M 300 354&#xA;             C 288 348 285 336 295 326&#xA;             C 298 331 295 321 302 314&#xA;             C 305 324 310 328 308 338&#xA;             C 312 334 316 340 312 348&#xA;             C 312 352 306 356 300 354 Z" fill="#C29A3E" stroke="#8A6B3C" stroke-width="1.4"></path>
    <path d="M 300 348 C 295 344 294 336 300 330 C 302 334 306 340 304 346" fill="#F5EDE0" stroke="none" opacity="0.7"></path>

    
    <path d="M 292 354 L 308 354 L 306 364 L 294 364 Z" fill="#8A6B3C" stroke-width="1.2"></path>

    
    <path d="M 245 376 L 355 376 L 350 388 L 250 388 Z" fill="#F5EDE0" stroke-width="2"></path>
    <path d="M 258 388 L 260 400 L 280 404 L 280 408 L 320 408 L 320 404 L 340 400 L 342 388" fill="#F5EDE0" stroke-width="1.8"></path>
    
    <path d="M 300 408 L 300 426" stroke-width="1.6"></path>
    <circle cx="300" cy="430" r="5" fill="#F5EDE0" stroke-width="1.6"></circle>
    <circle cx="300" cy="441" r="3" fill="#2A1A12"></circle>

    
    <g stroke-width="0.6" opacity="0.3" fill="none">
      <line x1="80" y1="160" x2="240" y2="160"></line>
      <line x1="80" y1="190" x2="240" y2="190"></line>
      <line x1="80" y1="220" x2="240" y2="220"></line>
      <line x1="80" y1="250" x2="240" y2="250"></line>
      <line x1="80" y1="280" x2="240" y2="280"></line>
      <line x1="80" y1="310" x2="240" y2="310"></line>
      <line x1="80" y1="340" x2="240" y2="340"></line>
      <line x1="80" y1="370" x2="240" y2="370"></line>
      <line x1="80" y1="400" x2="240" y2="400"></line>
      <line x1="80" y1="430" x2="240" y2="430"></line>
      <line x1="80" y1="460" x2="240" y2="460"></line>
    </g>
    <g stroke-width="0.6" opacity="0.3" fill="none">
      <line x1="360" y1="160" x2="520" y2="160"></line>
      <line x1="360" y1="190" x2="520" y2="190"></line>
      <line x1="360" y1="220" x2="520" y2="220"></line>
      <line x1="360" y1="250" x2="520" y2="250"></line>
      <line x1="360" y1="280" x2="520" y2="280"></line>
      <line x1="360" y1="310" x2="520" y2="310"></line>
      <line x1="360" y1="340" x2="520" y2="340"></line>
      <line x1="360" y1="370" x2="520" y2="370"></line>
      <line x1="360" y1="400" x2="520" y2="400"></line>
      <line x1="360" y1="430" x2="520" y2="430"></line>
      <line x1="360" y1="460" x2="520" y2="460"></line>
    </g>

    
    <g stroke-width="1" fill="none" opacity="0.55">
      <path d="M 120 520 Q 135 516 150 520 Q 165 524 180 520 Q 195 516 210 520"></path>
      <path d="M 230 524 Q 245 520 260 524 Q 275 528 290 524 Q 305 520 320 524"></path>
      <path d="M 340 520 Q 355 516 370 520 Q 385 524 400 520 Q 415 516 430 520"></path>
    </g>
  </g>
</svg>