<?xml version="1.0" encoding="UTF-8"?>
<svg xmlns="http://www.w3.org/2000/svg" viewBox="0 0 600 600" width="600" height="600">
  <title>King Cake · Streetcar</title>
  <defs>
    <pattern id="hatch-k" patternUnits="userSpaceOnUse" width="5" height="5" patternTransform="rotate(45)">
      <line x1="0" y1="0" x2="0" y2="5" stroke="#2A1A12" stroke-width="0.5" opacity="0.22"></line>
    </pattern>
  </defs>

  <circle cx="300" cy="300" r="268" fill="none" stroke="#B8935A" stroke-width="1" opacity="0.55"></circle>
  <circle cx="300" cy="300" r="254" fill="none" stroke="#B8935A" stroke-width="0.6" opacity="0.3"></circle>

  <g stroke="#2A1A12" stroke-linecap="round" stroke-linejoin="round">
    
    <ellipse cx="300" cy="360" rx="230" ry="38" fill="#F5EDE0" stroke-width="2.2"></ellipse>
    <ellipse cx="300" cy="358" rx="220" ry="32" fill="none" stroke-width="0.8" opacity="0.5"></ellipse>
    
    <g stroke-width="0.8" opacity="0.6" fill="none">
      <path d="M 90 362 Q 95 354 100 362"></path>
      <path d="M 110 368 Q 115 360 120 368"></path>
      <path d="M 480 368 Q 485 360 490 368"></path>
      <path d="M 500 362 Q 505 354 510 362"></path>
    </g>

    
    <ellipse cx="300" cy="310" rx="210" ry="68" fill="#D4B47A" stroke-width="2.4"></ellipse>
    <ellipse cx="300" cy="310" rx="210" ry="68" fill="url(#hatch-k)" stroke="none"></ellipse>
    <ellipse cx="300" cy="310" rx="90" ry="28" fill="#F5EDE0" stroke-width="2.4"></ellipse>

    
    <g stroke="#8A6B3C" stroke-width="1.2" fill="none" opacity="0.8">
      <path d="M 112 290 Q 130 320 150 288"></path>
      <path d="M 150 282 Q 170 315 190 278"></path>
      <path d="M 190 275 Q 210 310 232 272"></path>
      <path d="M 232 270 Q 255 305 278 268"></path>
      <path d="M 278 266 Q 300 300 322 266"></path>
      <path d="M 322 268 Q 345 305 368 270"></path>
      <path d="M 368 272 Q 390 310 410 275"></path>
      <path d="M 410 278 Q 430 315 450 282"></path>
      <path d="M 450 288 Q 470 320 488 290"></path>

      <path d="M 115 338 Q 140 368 165 338"></path>
      <path d="M 165 345 Q 192 380 218 345"></path>
      <path d="M 218 352 Q 248 388 278 352"></path>
      <path d="M 278 355 Q 300 390 322 355"></path>
      <path d="M 322 352 Q 352 388 382 352"></path>
      <path d="M 382 345 Q 408 380 435 345"></path>
      <path d="M 435 338 Q 460 368 485 338"></path>
    </g>

    
    <g fill="#F5EDE0" stroke-width="1.8">
      <path d="M 92 312&#xA;               C 92 250 185 215 300 215&#xA;               C 415 215 508 250 508 312&#xA;               C 500 298 490 290 480 295&#xA;               C 475 282 465 278 455 285&#xA;               C 450 275 438 272 430 280&#xA;               C 425 268 410 270 405 278&#xA;               C 398 270 385 270 380 280&#xA;               C 375 268 360 270 355 280&#xA;               C 348 270 335 270 330 280&#xA;               C 325 270 308 270 300 280&#xA;               C 292 270 275 270 270 280&#xA;               C 265 270 252 270 245 280&#xA;               C 240 270 225 268 220 280&#xA;               C 215 270 202 270 195 278&#xA;               C 190 270 175 268 170 280&#xA;               C 162 272 150 275 145 285&#xA;               C 135 278 125 282 120 295&#xA;               C 110 290 100 298 92 312 Z"></path>
    </g>

    
    
    <g fill="#6B2E82" opacity="0.75">
      <path d="M 105 268 Q 130 248 160 250 Q 180 256 195 268 Q 175 260 155 262 Q 130 262 115 278 Z"></path>
      <path d="M 220 240 Q 245 228 275 230 Q 295 236 305 250 Q 290 244 275 244 Q 250 244 240 260 Z"></path>
    </g>
    
    <g fill="#2F6B3E" opacity="0.75">
      <path d="M 320 230 Q 350 226 380 235 Q 395 244 400 258 Q 385 248 370 246 Q 345 244 335 258 Z"></path>
      <path d="M 195 272 Q 215 266 225 278 Q 205 276 195 288 Q 188 280 195 272 Z"></path>
    </g>
    
    <g fill="#C29A3E" opacity="0.85">
      <path d="M 410 244 Q 440 240 470 252 Q 485 264 495 278 Q 478 268 460 265 Q 435 260 422 272 Z"></path>
      <path d="M 300 220 Q 318 222 332 232 Q 320 230 310 236 Q 300 232 300 220 Z"></path>
    </g>

    
    <g>
      <circle cx="130" cy="280" r="2.4" fill="#6B2E82"></circle>
      <circle cx="155" cy="268" r="2.4" fill="#2F6B3E"></circle>
      <circle cx="180" cy="278" r="2.4" fill="#C29A3E"></circle>
      <circle cx="205" cy="260" r="2.4" fill="#6B2E82"></circle>
      <circle cx="230" cy="250" r="2.4" fill="#2F6B3E"></circle>
      <circle cx="255" cy="242" r="2.4" fill="#C29A3E"></circle>
      <circle cx="280" cy="234" r="2.4" fill="#6B2E82"></circle>
      <circle cx="305" cy="232" r="2.4" fill="#2F6B3E"></circle>
      <circle cx="330" cy="238" r="2.4" fill="#C29A3E"></circle>
      <circle cx="358" cy="244" r="2.4" fill="#6B2E82"></circle>
      <circle cx="385" cy="254" r="2.4" fill="#2F6B3E"></circle>
      <circle cx="412" cy="262" r="2.4" fill="#C29A3E"></circle>
      <circle cx="438" cy="270" r="2.4" fill="#6B2E82"></circle>
      <circle cx="462" cy="278" r="2.4" fill="#2F6B3E"></circle>
      <circle cx="482" cy="290" r="2.4" fill="#C29A3E"></circle>

      <circle cx="148" cy="300" r="1.6" fill="#2F6B3E"></circle>
      <circle cx="170" cy="295" r="1.6" fill="#C29A3E"></circle>
      <circle cx="192" cy="292" r="1.6" fill="#6B2E82"></circle>
      <circle cx="250" cy="272" r="1.6" fill="#C29A3E"></circle>
      <circle cx="272" cy="262" r="1.6" fill="#2F6B3E"></circle>
      <circle cx="295" cy="255" r="1.6" fill="#6B2E82"></circle>
      <circle cx="343" cy="262" r="1.6" fill="#C29A3E"></circle>
      <circle cx="370" cy="270" r="1.6" fill="#6B2E82"></circle>
      <circle cx="400" cy="278" r="1.6" fill="#2F6B3E"></circle>
      <circle cx="425" cy="286" r="1.6" fill="#C29A3E"></circle>
      <circle cx="450" cy="296" r="1.6" fill="#6B2E82"></circle>
    </g>

    
    <g fill="#F5EDE0" stroke-width="1.4">
      <path d="M 130 342 Q 133 362 128 370 Q 122 362 126 342 Z"></path>
      <path d="M 195 352 Q 198 374 193 382 Q 187 374 191 352 Z"></path>
      <path d="M 265 358 Q 268 380 263 388 Q 257 380 261 358 Z"></path>
      <path d="M 335 358 Q 338 380 333 388 Q 327 380 331 358 Z"></path>
      <path d="M 405 352 Q 408 374 403 382 Q 397 374 401 352 Z"></path>
      <path d="M 470 342 Q 473 362 468 370 Q 462 362 466 342 Z"></path>
    </g>

    
    <g transform="translate(300 320)" stroke-width="1">
      <ellipse cx="0" cy="0" rx="8" ry="5" fill="#F5EDE0"></ellipse>
      <circle cx="0" cy="-2" r="2.5" fill="#F5EDE0" stroke-width="0.9"></circle>
      <path d="M -2 -3 L -1 -3 M 1 -3 L 2 -3" stroke-width="0.6"></path>
      <path d="M -1 -1 Q 0 0 1 -1" stroke-width="0.5" fill="none"></path>
    </g>

    
    <ellipse cx="300" cy="402" rx="215" ry="8" fill="#2A1A12" opacity="0.12" stroke="none"></ellipse>
  </g>
</svg>