<?xml version="1.0" encoding="UTF-8"?>
<svg xmlns="http://www.w3.org/2000/svg" viewBox="0 0 600 600" width="600" height="600">
  <title>Live Oak with Spanish Moss · Streetcar</title>
  <defs>
    <pattern id="hatch-oak" patternUnits="userSpaceOnUse" width="4" height="4" patternTransform="rotate(30)">
      <line x1="0" y1="0" x2="0" y2="4" stroke="#2A1A12" stroke-width="0.55" opacity="0.3"></line>
    </pattern>
    <pattern id="bark-hatch" patternUnits="userSpaceOnUse" width="3" height="10">
      <path d="M 0 0 C 1 3 2 7 0 10" stroke="#2A1A12" stroke-width="0.55" fill="none" opacity="0.45"></path>
    </pattern>
  </defs>

  <circle cx="300" cy="300" r="268" fill="none" stroke="#B8935A" stroke-width="1" opacity="0.55"></circle>
  <circle cx="300" cy="300" r="254" fill="none" stroke="#B8935A" stroke-width="0.6" opacity="0.3"></circle>

  <g stroke="#2A1A12" stroke-linecap="round" stroke-linejoin="round">
    
    <path d="M 80 500 Q 300 510 520 500" fill="none" stroke-width="1.2" opacity="0.65"></path>
    <g stroke-width="0.7" opacity="0.5" fill="none">
      <path d="M 110 512 Q 125 508 140 512"></path>
      <path d="M 170 516 Q 185 512 200 516"></path>
      <path d="M 240 510 Q 255 506 270 510"></path>
      <path d="M 320 514 Q 335 510 350 514"></path>
      <path d="M 390 510 Q 405 506 420 510"></path>
      <path d="M 450 516 Q 465 512 480 516"></path>
    </g>

    
    <path d="M 220 495&#xA;             C 225 470 240 460 260 460&#xA;             L 340 460&#xA;             C 360 460 375 470 380 495&#xA;             L 370 500&#xA;             Q 355 482 325 482&#xA;             Q 305 483 295 488&#xA;             Q 285 483 275 482&#xA;             Q 245 482 230 500 Z" fill="#D4B47A" stroke-width="2.4"></path>
    <path d="M 220 495&#xA;             C 225 470 240 460 260 460&#xA;             L 340 460&#xA;             C 360 460 375 470 380 495&#xA;             L 370 500&#xA;             Q 355 482 325 482&#xA;             Q 305 483 295 488&#xA;             Q 285 483 275 482&#xA;             Q 245 482 230 500 Z" fill="url(#bark-hatch)" stroke="none"></path>

    
    <path d="M 258 460&#xA;             C 262 420 260 380 268 340&#xA;             C 272 320 274 300 270 290&#xA;             L 330 290&#xA;             C 326 300 328 320 332 340&#xA;             C 340 380 338 420 342 460&#xA;             Z" fill="#D4B47A" stroke-width="2.4"></path>
    <path d="M 258 460&#xA;             C 262 420 260 380 268 340&#xA;             C 272 320 274 300 270 290&#xA;             L 330 290&#xA;             C 326 300 328 320 332 340&#xA;             C 340 380 338 420 342 460 Z" fill="url(#bark-hatch)" stroke="none"></path>

    
    <g stroke-width="0.9" fill="none" opacity="0.8">
      <path d="M 272 455 C 275 420 272 385 276 350"></path>
      <path d="M 288 458 C 290 420 290 380 292 345"></path>
      <path d="M 304 458 C 305 420 305 380 306 345"></path>
      <path d="M 320 455 C 322 420 322 385 324 350"></path>
    </g>

    
    <ellipse cx="290" cy="400" rx="6" ry="4" fill="none" stroke-width="1.2"></ellipse>
    <ellipse cx="290" cy="400" rx="2.4" ry="1.6" fill="#2A1A12"></ellipse>

    
    
    <path d="M 266 340&#xA;             C 245 340 220 345 195 360&#xA;             C 170 375 140 378 115 362&#xA;             C 110 358 108 365 115 372&#xA;             C 140 390 175 388 205 378&#xA;             C 235 370 255 365 270 360&#xA;             Z" fill="#D4B47A" stroke-width="2.2"></path>
    
    <path d="M 276 300&#xA;             C 250 295 220 285 195 270&#xA;             C 170 255 145 240 120 230&#xA;             C 112 228 112 236 120 242&#xA;             C 145 258 175 272 195 286&#xA;             C 220 300 250 310 278 310&#xA;             Z" fill="#D4B47A" stroke-width="2.2"></path>

    
    <path d="M 334 340&#xA;             C 355 340 380 345 405 360&#xA;             C 430 375 460 378 485 362&#xA;             C 490 358 492 365 485 372&#xA;             C 460 390 425 388 395 378&#xA;             C 365 370 345 365 330 360 Z" fill="#D4B47A" stroke-width="2.2"></path>
    <path d="M 324 300&#xA;             C 350 295 380 285 405 270&#xA;             C 430 255 455 240 480 230&#xA;             C 488 228 488 236 480 242&#xA;             C 455 258 425 272 405 286&#xA;             C 380 300 350 310 322 310 Z" fill="#D4B47A" stroke-width="2.2"></path>

    
    <g stroke-width="0.7" fill="none" opacity="0.65">
      <path d="M 150 368 Q 180 362 210 368"></path>
      <path d="M 240 358 Q 258 356 270 356"></path>
      <path d="M 150 240 Q 180 252 210 260"></path>
      <path d="M 240 280 Q 258 286 270 292"></path>
      <path d="M 390 368 Q 420 362 450 368"></path>
      <path d="M 330 358 Q 345 356 360 356"></path>
      <path d="M 390 240 Q 420 252 450 260"></path>
      <path d="M 330 280 Q 345 286 360 292"></path>
    </g>

    
    <g stroke-width="2" fill="none">
      <path d="M 270 295 C 240 260 215 230 180 210"></path>
      <path d="M 280 290 C 260 250 240 210 220 180"></path>
      <path d="M 300 290 C 298 245 308 200 312 170"></path>
      <path d="M 320 290 C 340 250 360 210 380 180"></path>
      <path d="M 330 295 C 360 260 385 230 420 210"></path>
    </g>

    
    
    <path d="M 120 260&#xA;             C 85 240 80 180 130 160&#xA;             C 130 130 180 120 210 145&#xA;             C 225 120 270 115 290 140&#xA;             C 310 115 340 118 355 140&#xA;             C 380 118 425 125 435 150&#xA;             C 470 135 510 165 500 205&#xA;             C 530 225 525 275 490 290&#xA;             C 490 320 440 335 410 320&#xA;             C 395 345 355 345 335 325&#xA;             C 315 345 285 345 265 325&#xA;             C 245 345 205 345 190 320&#xA;             C 160 335 110 320 110 290&#xA;             C 80 275 85 230 120 260 Z" fill="#F5EDE0" stroke-width="2.4"></path>

    
    <path d="M 120 260&#xA;             C 85 240 80 180 130 160&#xA;             C 130 130 180 120 210 145&#xA;             C 225 120 270 115 290 140&#xA;             C 310 115 340 118 355 140&#xA;             C 380 118 425 125 435 150&#xA;             C 470 135 510 165 500 205&#xA;             C 530 225 525 275 490 290&#xA;             C 490 320 440 335 410 320&#xA;             C 395 345 355 345 335 325&#xA;             C 315 345 285 345 265 325&#xA;             C 245 345 205 345 190 320&#xA;             C 160 335 110 320 110 290&#xA;             C 80 275 85 230 120 260 Z" fill="#2F6B3E" fill-opacity="0.18" stroke="none"></path>

    
    <g fill="none" stroke="#2A1A12" stroke-width="1" opacity="0.7">
      <path d="M 115 260 Q 130 245 150 260 Q 170 245 190 260"></path>
      <path d="M 195 270 Q 215 255 235 270 Q 255 255 275 270"></path>
      <path d="M 285 275 Q 300 258 320 275 Q 335 258 355 275"></path>
      <path d="M 365 268 Q 385 253 405 268 Q 425 253 445 268"></path>
      <path d="M 455 255 Q 475 240 495 255"></path>
      <path d="M 105 220 Q 125 205 145 220 Q 165 205 185 220"></path>
      <path d="M 195 205 Q 215 190 235 205 Q 255 190 275 205"></path>
      <path d="M 285 200 Q 305 185 325 200 Q 345 185 365 200"></path>
      <path d="M 375 210 Q 395 195 415 210 Q 435 195 455 210"></path>
    </g>

    
    <g fill="#2A1A12" opacity="0.5">
      <circle cx="125" cy="240" r="1.4"></circle><circle cx="155" cy="225" r="1.4"></circle>
      <circle cx="180" cy="245" r="1.4"></circle><circle cx="205" cy="230" r="1.4"></circle>
      <circle cx="235" cy="220" r="1.4"></circle><circle cx="260" cy="240" r="1.4"></circle>
      <circle cx="285" cy="225" r="1.4"></circle><circle cx="310" cy="215" r="1.4"></circle>
      <circle cx="340" cy="230" r="1.4"></circle><circle cx="365" cy="220" r="1.4"></circle>
      <circle cx="390" cy="240" r="1.4"></circle><circle cx="415" cy="225" r="1.4"></circle>
      <circle cx="445" cy="245" r="1.4"></circle><circle cx="470" cy="230" r="1.4"></circle>
      <circle cx="490" cy="255" r="1.4"></circle>
      <circle cx="135" cy="280" r="1.4"></circle><circle cx="165" cy="295" r="1.4"></circle>
      <circle cx="200" cy="285" r="1.4"></circle><circle cx="230" cy="300" r="1.4"></circle>
      <circle cx="260" cy="290" r="1.4"></circle><circle cx="290" cy="305" r="1.4"></circle>
      <circle cx="320" cy="295" r="1.4"></circle><circle cx="350" cy="308" r="1.4"></circle>
      <circle cx="380" cy="295" r="1.4"></circle><circle cx="410" cy="305" r="1.4"></circle>
      <circle cx="440" cy="290" r="1.4"></circle><circle cx="470" cy="300" r="1.4"></circle>
    </g>

    
    <g stroke="#2A1A12" stroke-width="0.4" opacity="0.3" fill="none">
      <path d="M 125 255 L 140 270"></path>
      <path d="M 165 240 L 180 255"></path>
      <path d="M 215 255 L 230 270"></path>
      <path d="M 255 240 L 270 255"></path>
      <path d="M 305 255 L 320 270"></path>
      <path d="M 355 240 L 370 255"></path>
      <path d="M 405 255 L 420 270"></path>
      <path d="M 445 240 L 460 255"></path>
    </g>

    
    <g stroke="#8A6B3C" stroke-width="0.9" fill="none" opacity="0.8">
      <path d="M 150 345 Q 148 370 152 395 Q 150 410 148 428"></path>
      <path d="M 180 355 Q 178 380 182 405 Q 180 420 178 440"></path>
      <path d="M 215 365 Q 213 390 217 415 Q 215 430 213 448"></path>
      <path d="M 115 335 Q 113 365 117 390"></path>
      <path d="M 250 370 Q 248 395 252 420 Q 250 435 248 452"></path>
      <path d="M 350 370 Q 352 395 348 420 Q 350 435 352 452"></path>
      <path d="M 385 365 Q 387 390 383 415 Q 385 430 387 448"></path>
      <path d="M 420 355 Q 422 380 418 405 Q 420 420 422 440"></path>
      <path d="M 450 345 Q 452 370 448 395 Q 450 410 452 428"></path>
      <path d="M 485 335 Q 487 365 483 390"></path>
    </g>
    
    <g fill="#8A6B3C" opacity="0.75">
      <circle cx="148" cy="430" r="1.8"></circle>
      <circle cx="178" cy="442" r="1.8"></circle>
      <circle cx="213" cy="450" r="1.8"></circle>
      <circle cx="248" cy="454" r="1.8"></circle>
      <circle cx="352" cy="454" r="1.8"></circle>
      <circle cx="387" cy="450" r="1.8"></circle>
      <circle cx="422" cy="442" r="1.8"></circle>
      <circle cx="452" cy="430" r="1.8"></circle>
      <circle cx="117" cy="392" r="1.8"></circle>
      <circle cx="483" cy="392" r="1.8"></circle>
    </g>

    
    <g transform="translate(420 350)">
      <path d="M 0 0 C -7 -1 -10 -6 -4 -10 C 2 -12 8 -8 8 -3 C 6 0 2 2 0 0 Z" fill="#6B2E82" fill-opacity="0.6" stroke="#2A1A12" stroke-width="1.1"></path>
      <path d="M -10 -8 L -14 -11" stroke-width="1"></path>
      <circle cx="-2" cy="-8" r="0.9" fill="#2A1A12"></circle>
    </g>

    
    <g stroke-width="1" transform="translate(170 350)">
      <ellipse cx="0" cy="0" rx="4" ry="5" fill="#D4B47A" stroke="#2A1A12"></ellipse>
      <path d="M -4 -3 Q 0 -7 4 -3" fill="#8A6B3C" stroke="#2A1A12" stroke-width="0.9"></path>
      <g stroke="#2A1A12" stroke-width="0.4" opacity="0.6">
        <line x1="-3" y1="-3" x2="3" y2="-3"></line>
        <line x1="-3" y1="-5" x2="3" y2="-5"></line>
      </g>
    </g>
  </g>
</svg>