<?xml version="1.0" encoding="UTF-8"?>
<svg xmlns="http://www.w3.org/2000/svg" viewBox="0 0 600 600" width="600" height="600">
  <title>Mississippi Steamboat · Streetcar</title>
  <defs>
    <pattern id="hatch-s" patternUnits="userSpaceOnUse" width="5" height="5" patternTransform="rotate(45)">
      <line x1="0" y1="0" x2="0" y2="5" stroke="#2A1A12" stroke-width="0.55" opacity="0.28"></line>
    </pattern>
    <pattern id="water" patternUnits="userSpaceOnUse" width="40" height="12">
      <path d="M 0 6 Q 10 0 20 6 Q 30 12 40 6" fill="none" stroke="#2A1A12" stroke-width="0.7" opacity="0.4"></path>
    </pattern>
  </defs>

  <circle cx="300" cy="300" r="268" fill="none" stroke="#B8935A" stroke-width="1" opacity="0.55"></circle>
  <circle cx="300" cy="300" r="254" fill="none" stroke="#B8935A" stroke-width="0.6" opacity="0.3"></circle>

  <g stroke="#2A1A12" stroke-linecap="round" stroke-linejoin="round">
    
    <g fill="#F5EDE0" stroke-width="1.4">
      <path d="M 220 130&#xA;               C 205 122 200 110 210 100&#xA;               C 200 88 220 72 235 82&#xA;               C 240 70 260 70 265 85&#xA;               C 280 78 292 92 285 105&#xA;               C 300 105 302 122 288 128&#xA;               C 290 142 270 148 260 140&#xA;               C 250 152 225 148 220 130 Z"></path>
      <path d="M 300 150&#xA;               C 282 142 280 128 290 120&#xA;               C 280 108 300 92 315 102&#xA;               C 320 92 338 92 342 104&#xA;               C 358 100 368 115 360 128&#xA;               C 372 130 372 145 360 148&#xA;               C 360 160 342 164 332 158&#xA;               C 322 168 308 162 300 150 Z"></path>
    </g>
    
    <g fill="none" stroke-width="0.9" opacity="0.55">
      <path d="M 230 110 C 240 105 250 108 260 103"></path>
      <path d="M 245 95 C 255 92 265 95"></path>
      <path d="M 310 130 C 320 125 330 128 340 123"></path>
      <path d="M 325 115 C 335 112 345 115"></path>
    </g>

    
    <g fill="#2A1A12">
      <rect x="235" y="165" width="18" height="125" stroke-width="2" fill="#F5EDE0"></rect>
      <rect x="315" y="150" width="18" height="140" stroke-width="2" fill="#F5EDE0"></rect>
    </g>
    
    <path d="M 230 168 L 258 168 L 254 172 L 234 172 Z" fill="#2A1A12"></path>
    <path d="M 310 153 L 338 153 L 334 157 L 314 157 Z" fill="#2A1A12"></path>
    
    <path d="M 230 168 L 233 160 L 237 165 L 240 158 L 244 165 L 248 158 L 252 165 L 255 158 L 258 168" fill="#F5EDE0" stroke-width="1.4"></path>
    <path d="M 310 153 L 313 145 L 317 150 L 320 143 L 324 150 L 328 143 L 332 150 L 335 143 L 338 153" fill="#F5EDE0" stroke-width="1.4"></path>
    
    <rect x="235" y="165" width="18" height="125" fill="url(#hatch-s)" stroke="none"></rect>
    <rect x="315" y="150" width="18" height="140" fill="url(#hatch-s)" stroke="none"></rect>

    
    <rect x="260" y="220" width="80" height="30" fill="#F5EDE0" stroke-width="2.2"></rect>
    <path d="M 255 220 L 345 220 L 340 212 L 260 212 Z" fill="#F5EDE0" stroke-width="1.8"></path>
    <path d="M 255 215 L 345 215" stroke-width="0.7" opacity="0.5"></path>
    
    <g fill="#2A1A12" stroke-width="1">
      <rect x="268" y="228" width="14" height="14"></rect>
      <rect x="288" y="228" width="14" height="14"></rect>
      <rect x="308" y="228" width="14" height="14"></rect>
    </g>
    
    <line x1="300" y1="212" x2="300" y2="190" stroke-width="1.4"></line>
    <path d="M 300 190 L 322 195 L 300 202 Z" fill="#6B2E82" stroke-width="1.2"></path>

    
    <rect x="140" y="250" width="320" height="45" fill="#F5EDE0" stroke-width="2.4"></rect>
    
    <g stroke-width="1" fill="#F5EDE0">
      <rect x="155" y="262" width="18" height="22"></rect>
      <rect x="180" y="262" width="18" height="22"></rect>
      <rect x="205" y="262" width="18" height="22"></rect>
      <rect x="230" y="262" width="18" height="22"></rect>
      <rect x="255" y="262" width="18" height="22"></rect>
      <rect x="280" y="262" width="18" height="22"></rect>
      <rect x="305" y="262" width="18" height="22"></rect>
      <rect x="330" y="262" width="18" height="22"></rect>
      <rect x="355" y="262" width="18" height="22"></rect>
      <rect x="380" y="262" width="18" height="22"></rect>
      <rect x="405" y="262" width="18" height="22"></rect>
      <rect x="430" y="262" width="18" height="22"></rect>
    </g>
    <g fill="#C29A3E" opacity="0.55">
      <rect x="156" y="263" width="16" height="20"></rect>
      <rect x="206" y="263" width="16" height="20"></rect>
      <rect x="256" y="263" width="16" height="20"></rect>
      <rect x="306" y="263" width="16" height="20"></rect>
      <rect x="356" y="263" width="16" height="20"></rect>
      <rect x="406" y="263" width="16" height="20"></rect>
    </g>

    
    <g stroke-width="0.8" fill="none" opacity="0.75">
      <path d="M 140 295 L 460 295"></path>
      <g>
        <path d="M 150 295 Q 158 290 166 295"></path>
        <path d="M 175 295 Q 183 290 191 295"></path>
        <path d="M 200 295 Q 208 290 216 295"></path>
        <path d="M 225 295 Q 233 290 241 295"></path>
        <path d="M 250 295 Q 258 290 266 295"></path>
        <path d="M 275 295 Q 283 290 291 295"></path>
        <path d="M 300 295 Q 308 290 316 295"></path>
        <path d="M 325 295 Q 333 290 341 295"></path>
        <path d="M 350 295 Q 358 290 366 295"></path>
        <path d="M 375 295 Q 383 290 391 295"></path>
        <path d="M 400 295 Q 408 290 416 295"></path>
        <path d="M 425 295 Q 433 290 441 295"></path>
      </g>
    </g>

    
    <rect x="110" y="300" width="380" height="40" fill="#F5EDE0" stroke-width="2.4"></rect>
    <g stroke-width="1" fill="#2A1A12">
      <rect x="130" y="310" width="10" height="22" fill="#2A1A12"></rect>
      <rect x="150" y="310" width="10" height="22"></rect>
      <rect x="170" y="310" width="10" height="22"></rect>
      <rect x="420" y="310" width="10" height="22"></rect>
      <rect x="440" y="310" width="10" height="22"></rect>
      <rect x="460" y="310" width="10" height="22"></rect>
    </g>
    
    <rect x="200" y="308" width="200" height="24" fill="#F5EDE0" stroke-width="1.4"></rect>
    <text x="300" y="325" text-anchor="middle" font-family="Cinzel, serif" font-weight="600" font-size="14" fill="#2A1A12" letter-spacing="3">STREETCAR</text>

    
    <path d="M 110 340&#xA;             L 490 340&#xA;             L 500 360&#xA;             C 480 385 440 400 300 400&#xA;             C 160 400 120 385 100 360&#xA;             Z" fill="#F5EDE0" stroke-width="2.4"></path>
    <path d="M 110 340&#xA;             L 490 340&#xA;             L 500 360&#xA;             C 480 385 440 400 300 400&#xA;             C 160 400 120 385 100 360 Z" fill="url(#hatch-s)" stroke="none"></path>
    
    <line x1="115" y1="375" x2="490" y2="375" stroke-width="1" opacity="0.6"></line>

    
    <path d="M 462 300&#xA;             C 498 300 518 320 518 345&#xA;             C 518 370 500 392 470 395&#xA;             L 470 300 Z" fill="#F5EDE0" stroke-width="2.4"></path>
    
    <g stroke-width="1.6" fill="none">
      <circle cx="495" cy="348" r="38" stroke="#2A1A12"></circle>
      <line x1="495" y1="310" x2="495" y2="386"></line>
      <line x1="457" y1="348" x2="533" y2="348"></line>
      <line x1="468" y1="321" x2="522" y2="375"></line>
      <line x1="468" y1="375" x2="522" y2="321"></line>
    </g>
    
    <g stroke-width="1.4" fill="#8A6B3C">
      <rect x="493" y="305" width="4" height="10"></rect>
      <rect x="493" y="381" width="4" height="10"></rect>
      <rect x="453" y="346" width="10" height="4"></rect>
      <rect x="527" y="346" width="10" height="4"></rect>
    </g>

    
    <g stroke-width="1.4" fill="#2A1A12">
      <line x1="135" y1="365" x2="135" y2="395" stroke="#2A1A12" stroke-width="1.2"></line>
      <path d="M 120 395 L 135 400 L 150 395 L 148 402 L 135 408 L 122 402 Z"></path>
    </g>

    
    <g fill="none" stroke="#2A1A12" stroke-width="0.9" opacity="0.55">
      <path d="M 80 430 Q 110 425 140 430 Q 170 435 200 430 Q 230 425 260 430 Q 290 435 320 430 Q 350 425 380 430 Q 410 435 440 430 Q 470 425 500 430 Q 520 432 530 430"></path>
      <path d="M 80 450 Q 110 445 140 450 Q 170 455 200 450 Q 230 445 260 450 Q 290 455 320 450 Q 350 445 380 450 Q 410 455 440 450 Q 470 445 500 450"></path>
      <path d="M 80 470 Q 110 465 140 470 Q 170 475 200 470 Q 230 465 260 470 Q 290 475 320 470 Q 350 465 380 470 Q 410 475 440 470 Q 470 465 500 470"></path>
      <path d="M 80 490 Q 110 485 140 490 Q 170 495 200 490 Q 230 485 260 490 Q 290 495 320 490 Q 350 485 380 490 Q 410 495 440 490 Q 470 485 500 490"></path>
    </g>
  </g>
</svg>