<?xml version="1.0" encoding="UTF-8"?>
<svg xmlns="http://www.w3.org/2000/svg" viewBox="0 0 600 600" width="600" height="600">
  <title>French Quarter Wrought-Iron Balcony · Streetcar</title>
  <defs>
    
    <g id="iron-scroll">
      <path d="M 0 0 C -8 -8 -8 -20 0 -28 C 8 -20 8 -8 0 0 Z&#xA;               M 0 0 C -8 8 -8 20 0 28 C 8 20 8 8 0 0 Z" fill="#2A1A12" stroke="#2A1A12" stroke-width="1.2"></path>
    </g>
    <pattern id="hatch-br" patternUnits="userSpaceOnUse" width="6" height="6" patternTransform="rotate(45)">
      <line x1="0" y1="0" x2="0" y2="6" stroke="#2A1A12" stroke-width="0.6" opacity="0.25"></line>
    </pattern>
  </defs>

  <circle cx="300" cy="300" r="268" fill="none" stroke="#B8935A" stroke-width="1" opacity="0.55"></circle>
  <circle cx="300" cy="300" r="254" fill="none" stroke="#B8935A" stroke-width="0.6" opacity="0.3"></circle>

  <g stroke="#2A1A12" stroke-linecap="round" stroke-linejoin="round">
    
    <rect x="110" y="90" width="380" height="430" fill="url(#hatch-br)" stroke="none"></rect>

    
    <path d="M 90 110 L 510 110" fill="none" stroke-width="2.4"></path>
    <path d="M 90 110 L 110 90 L 490 90 L 510 110" fill="#F5EDE0" stroke-width="2"></path>

    
    <g fill="#F5EDE0" stroke-width="1.8">
      <rect x="170" y="130" width="70" height="120"></rect>
      <rect x="265" y="130" width="70" height="120"></rect>
      <rect x="360" y="130" width="70" height="120"></rect>
    </g>
    
    <g stroke-width="0.8" opacity="0.7">
      <g>
        <line x1="178" y1="145" x2="232" y2="145"></line><line x1="178" y1="160" x2="232" y2="160"></line>
        <line x1="178" y1="175" x2="232" y2="175"></line><line x1="178" y1="190" x2="232" y2="190"></line>
        <line x1="178" y1="205" x2="232" y2="205"></line><line x1="178" y1="220" x2="232" y2="220"></line>
        <line x1="178" y1="235" x2="232" y2="235"></line>
        <line x1="205" y1="130" x2="205" y2="250"></line>
      </g>
      <g>
        <line x1="273" y1="145" x2="327" y2="145"></line><line x1="273" y1="160" x2="327" y2="160"></line>
        <line x1="273" y1="175" x2="327" y2="175"></line><line x1="273" y1="190" x2="327" y2="190"></line>
        <line x1="273" y1="205" x2="327" y2="205"></line><line x1="273" y1="220" x2="327" y2="220"></line>
        <line x1="273" y1="235" x2="327" y2="235"></line>
        <line x1="300" y1="130" x2="300" y2="250"></line>
      </g>
      <g>
        <line x1="368" y1="145" x2="422" y2="145"></line><line x1="368" y1="160" x2="422" y2="160"></line>
        <line x1="368" y1="175" x2="422" y2="175"></line><line x1="368" y1="190" x2="422" y2="190"></line>
        <line x1="368" y1="205" x2="422" y2="205"></line><line x1="368" y1="220" x2="422" y2="220"></line>
        <line x1="368" y1="235" x2="422" y2="235"></line>
        <line x1="395" y1="130" x2="395" y2="250"></line>
      </g>
    </g>

    
    <g fill="none" stroke-width="1.4">
      <path d="M 170 130 Q 205 115 240 130"></path>
      <path d="M 265 130 Q 300 115 335 130"></path>
      <path d="M 360 130 Q 395 115 430 130"></path>
    </g>

    
    <rect x="110" y="268" width="380" height="14" fill="#F5EDE0" stroke-width="2.2"></rect>
    <line x1="110" y1="275" x2="490" y2="275" stroke-width="0.7" opacity="0.5"></line>

    
    <rect x="110" y="258" width="380" height="10" fill="#F5EDE0" stroke-width="1.6"></rect>

    
    <rect x="110" y="285" width="380" height="150" fill="none" stroke-width="2.4"></rect>
    
    <line x1="110" y1="290" x2="490" y2="290" stroke-width="2"></line>
    <line x1="110" y1="430" x2="490" y2="430" stroke-width="2"></line>
    <line x1="110" y1="434" x2="490" y2="434" stroke-width="1"></line>

    
    <g fill="none" stroke-width="1.6">
      
      <line x1="200" y1="290" x2="200" y2="430" stroke-width="1.4"></line>
      <line x1="300" y1="290" x2="300" y2="430" stroke-width="1.4"></line>
      <line x1="400" y1="290" x2="400" y2="430" stroke-width="1.4"></line>

      
      <g transform="translate(155 360)">
        <path d="M -30 -50 C -20 -30 -10 -30 0 -40 C 10 -30 20 -30 30 -50"></path>
        <path d="M 0 -40 L 0 40"></path>
        <path d="M -30 50 C -20 30 -10 30 0 40 C 10 30 20 30 30 50"></path>
        <path d="M -25 0 C -15 -10 15 -10 25 0 C 15 10 -15 10 -25 0 Z"></path>
        <circle cx="0" cy="0" r="4" fill="#2A1A12"></circle>
      </g>
      <g transform="translate(250 360)">
        <path d="M -30 -50 C -20 -30 -10 -30 0 -40 C 10 -30 20 -30 30 -50"></path>
        <path d="M 0 -40 L 0 40"></path>
        <path d="M -30 50 C -20 30 -10 30 0 40 C 10 30 20 30 30 50"></path>
        <path d="M -25 0 C -15 -10 15 -10 25 0 C 15 10 -15 10 -25 0 Z"></path>
        <circle cx="0" cy="0" r="4" fill="#2A1A12"></circle>
      </g>
      <g transform="translate(350 360)">
        <path d="M -30 -50 C -20 -30 -10 -30 0 -40 C 10 -30 20 -30 30 -50"></path>
        <path d="M 0 -40 L 0 40"></path>
        <path d="M -30 50 C -20 30 -10 30 0 40 C 10 30 20 30 30 50"></path>
        <path d="M -25 0 C -15 -10 15 -10 25 0 C 15 10 -15 10 -25 0 Z"></path>
        <circle cx="0" cy="0" r="4" fill="#2A1A12"></circle>
      </g>
      <g transform="translate(445 360)">
        <path d="M -30 -50 C -20 -30 -10 -30 0 -40 C 10 -30 20 -30 30 -50"></path>
        <path d="M 0 -40 L 0 40"></path>
        <path d="M -30 50 C -20 30 -10 30 0 40 C 10 30 20 30 30 50"></path>
        <path d="M -25 0 C -15 -10 15 -10 25 0 C 15 10 -15 10 -25 0 Z"></path>
        <circle cx="0" cy="0" r="4" fill="#2A1A12"></circle>
      </g>
    </g>

    
    <g stroke="#2F6B3E" stroke-width="1.2" fill="none">
      <path d="M 140 290 Q 130 305 145 320 Q 125 330 148 345"></path>
      <path d="M 460 290 Q 450 305 465 320 Q 445 330 468 345"></path>
      <path d="M 135 300 Q 128 308 138 315"></path>
      <path d="M 465 300 Q 472 308 462 315"></path>
    </g>
    <g fill="#2F6B3E" opacity="0.85">
      <ellipse cx="138" cy="335" rx="4" ry="2"></ellipse>
      <ellipse cx="462" cy="335" rx="4" ry="2"></ellipse>
    </g>

    
    <g stroke-width="1.6" fill="#F5EDE0">
      <line x1="300" y1="258" x2="300" y2="268" stroke-width="1" fill="none"></line>
      <path d="M 288 268 L 312 268 L 314 298 L 286 298 Z" fill="#F5EDE0"></path>
      <circle cx="300" cy="285" r="6" fill="#C29A3E"></circle>
      <path d="M 286 298 L 314 298 L 312 304 L 288 304 Z" fill="#F5EDE0"></path>
    </g>

    
    <rect x="90" y="445" width="420" height="14" fill="#F5EDE0" stroke-width="2"></rect>
    <rect x="100" y="459" width="400" height="30" fill="none" stroke-width="1.2"></rect>
    <g stroke-width="0.6" opacity="0.5">
      <line x1="160" y1="459" x2="160" y2="489"></line>
      <line x1="220" y1="459" x2="220" y2="489"></line>
      <line x1="280" y1="459" x2="280" y2="489"></line>
      <line x1="340" y1="459" x2="340" y2="489"></line>
      <line x1="400" y1="459" x2="400" y2="489"></line>
      <line x1="440" y1="459" x2="440" y2="489"></line>
    </g>
  </g>
</svg>